<svg width="20" height="20" viewBox="0 0 20 20" fill="none" xmlns="http://www.w3.org/2000/svg">
<path d="M16.0021 0.997009H3.99907C3.20345 0.999385 2.44111 1.31657 1.87861 1.87925C1.31611 2.44194 0.999181 3.20439 0.99707 4.00001V16.002C0.99997 16.7972 1.31721 17.559 1.8796 18.1212C2.44198 18.6834 3.20387 19.0004 3.99907 19.003H16.0021C16.7971 19.0001 17.5587 18.683 18.1209 18.1208C18.6831 17.5587 19.0002 16.797 19.0031 16.002V4.00001C19.0007 3.20464 18.6838 2.44249 18.1216 1.87989C17.5594 1.31729 16.7974 0.99991 16.0021 0.997009ZM14.3621 13.644C14.2101 14.004 13.9731 14.324 13.6691 14.571C13.3096 14.8502 12.9003 15.0586 12.4631 15.185C11.9731 15.336 11.3891 15.414 10.7131 15.414H5.88807V4.90901H10.9911C11.9341 4.90901 12.6911 5.12201 13.2581 5.55501C13.8271 5.99101 14.1121 6.63701 14.1121 7.51301C14.1121 8.04101 13.9821 8.49601 13.7231 8.87001C13.4641 9.24301 13.0931 9.53401 12.6121 9.73801V9.77201C13.2541 9.90701 13.7491 10.21 14.0761 10.684C14.4031 11.157 14.5691 11.753 14.5691 12.473C14.5691 12.878 14.4911 13.261 14.3441 13.62L14.3641 13.641V13.644H14.3621ZM12.2781 11.055C11.9691 10.773 11.5391 10.636 10.9811 10.636H7.73707V13.912H10.9901C11.5441 13.912 11.9811 13.768 12.2881 13.477C12.5961 13.188 12.7521 12.776 12.7521 12.248C12.7471 11.73 12.5961 11.329 12.2881 11.055H12.2741H12.2781ZM11.8271 8.93601C12.1261 8.68501 12.2711 8.32301 12.2711 7.85201C12.2711 7.32601 12.1401 6.95001 11.8741 6.73601C11.6101 6.52201 11.2281 6.41001 10.7281 6.41001H7.72707V9.30801H10.7281C11.1641 9.30901 11.5381 9.18101 11.8271 8.93601Z" fill="#f25f5c"/>
</svg>
