<svg width="48" height="48" viewBox="0 0 48 48" fill="none" xmlns="http://www.w3.org/2000/svg">
<path d="M28 4H12C10.9391 4 9.92172 4.42143 9.17157 5.17157C8.42143 5.92172 8 6.93913 8 8V40C8 41.0609 8.42143 42.0783 9.17157 42.8284C9.92172 43.5786 10.9391 44 12 44H36C37.0609 44 38.0783 43.5786 38.8284 42.8284C39.5786 42.0783 40 41.0609 40 40V16L28 4ZM18.892 34.824C19.442 34.824 20.054 34.702 20.416 34.56L20.692 35.986C20.356 36.154 19.6 36.334 18.618 36.334C15.824 36.334 14.384 34.596 14.384 32.292C14.382 29.536 16.35 28 18.796 28C19.744 28 20.462 28.192 20.786 28.36L20.414 29.812C19.9269 29.6115 19.4047 29.5102 18.878 29.514C17.426 29.514 16.298 30.39 16.298 32.188C16.3 33.804 17.262 34.824 18.892 34.824V34.824ZM23.874 36.334C22.952 36.334 22.04 36.096 21.584 35.844L21.956 34.332C22.448 34.584 23.204 34.836 23.984 34.836C24.824 34.836 25.268 34.488 25.268 33.96C25.268 33.456 24.884 33.168 23.912 32.82C22.568 32.352 21.694 31.61 21.694 30.434C21.694 29.056 22.844 28 24.752 28C25.662 28 26.334 28.192 26.814 28.406L26.406 29.882C25.8787 29.6265 25.2999 29.4952 24.714 29.498C23.922 29.498 23.54 29.86 23.54 30.278C23.54 30.794 23.996 31.022 25.038 31.418C26.466 31.946 27.138 32.69 27.138 33.828C27.136 35.184 26.092 36.334 23.874 36.334V36.334ZM30.354 36.334C29.432 36.334 28.52 36.096 28.064 35.844L28.436 34.332C28.928 34.584 29.684 34.836 30.464 34.836C31.304 34.836 31.748 34.488 31.748 33.96C31.748 33.456 31.364 33.168 30.392 32.82C29.048 32.352 28.174 31.61 28.174 30.434C28.174 29.056 29.324 28 31.232 28C32.142 28 32.814 28.192 33.294 28.406L32.886 29.882C32.3587 29.6265 31.7799 29.4952 31.194 29.498C30.402 29.498 30.02 29.86 30.02 30.278C30.02 30.794 30.476 31.022 31.518 31.418C32.946 31.946 33.618 32.69 33.618 33.828C33.618 35.184 32.572 36.334 30.354 36.334V36.334ZM28 18H26V8L36 18H28Z" fill="#5465ff"/>
</svg>
