<svg width="48" height="48" viewBox="0 0 48 48" fill="none" xmlns="http://www.w3.org/2000/svg">
<path d="M30.664 17.336C32.3965 17.284 34.0407 16.5592 35.2478 15.3153C36.4549 14.0715 37.13 12.4063 37.13 10.673C37.13 8.9397 36.4549 7.27455 35.2478 6.03067C34.0407 4.78679 32.3965 4.06201 30.664 4.01001H17.336C15.6035 4.06201 13.9593 4.78679 12.7522 6.03067C11.5451 7.27455 10.87 8.9397 10.87 10.673C10.87 12.4063 11.5451 14.0715 12.7522 15.3153C13.9593 16.5592 15.6035 17.284 17.336 17.336C15.5883 17.3663 13.9225 18.0818 12.6972 19.3284C11.472 20.5751 10.7855 22.2531 10.7855 24.001C10.7855 25.7489 11.472 27.4269 12.6972 28.6736C13.9225 29.9202 15.5883 30.6357 17.336 30.666C15.5969 30.7086 13.9433 31.4294 12.7283 32.6745C11.5134 33.9196 10.8333 35.5904 10.8333 37.33C10.8333 39.0697 11.5134 40.7404 12.7283 41.9855C13.9433 43.2306 15.5969 43.9514 17.336 43.994C19.1034 43.993 20.7981 43.2902 22.0477 42.0403C23.2973 40.7903 23.9995 39.0954 24 37.328V17.336H30.664Z" fill="#0F89BD"/>
<path d="M30.664 30.6641C34.3444 30.6641 37.328 27.6805 37.328 24.0001C37.328 20.3196 34.3444 17.3361 30.664 17.3361C26.9836 17.3361 24 20.3196 24 24.0001C24 27.6805 26.9836 30.6641 30.664 30.6641Z" fill="#0F89BD"/>
</svg>
