<svg width="20" height="20" viewBox="0 0 20 20" fill="none" xmlns="http://www.w3.org/2000/svg">
<path d="M19.62 9.108L10.889 0.378996C10.6469 0.13797 10.3191 0.00265503 9.9775 0.00265503C9.63586 0.00265503 9.30813 0.13797 9.066 0.378996L7.257 2.19L9.556 4.49C9.82725 4.39834 10.1188 4.38454 10.3974 4.45014C10.6761 4.51575 10.9309 4.65814 11.1328 4.86116C11.3346 5.06419 11.4756 5.31972 11.5396 5.59879C11.6036 5.87785 11.5882 6.16927 11.495 6.44L13.709 8.657C14.0368 8.54198 14.394 8.54193 14.7218 8.65687C15.0496 8.7718 15.3285 8.99487 15.5128 9.28939C15.697 9.58391 15.7755 9.93235 15.7353 10.2774C15.6952 10.6225 15.5389 10.9436 15.292 11.188C14.693 11.788 13.726 11.788 13.126 11.188C12.9129 10.9746 12.7673 10.7033 12.7073 10.4077C12.6474 10.1122 12.6758 9.80552 12.789 9.526L10.715 7.463V12.9C10.861 12.971 11.001 13.069 11.122 13.19C11.4079 13.4779 11.5684 13.8672 11.5684 14.273C11.5684 14.6788 11.4079 15.0681 11.122 15.356C10.9793 15.4989 10.8099 15.6123 10.6234 15.6896C10.4369 15.767 10.2369 15.8068 10.035 15.8068C9.83308 15.8068 9.63314 15.767 9.44662 15.6896C9.2601 15.6123 9.09066 15.4989 8.948 15.356C8.80565 15.2141 8.69271 15.0454 8.61565 14.8597C8.53858 14.6741 8.49892 14.475 8.49892 14.274C8.49892 14.073 8.53858 13.8739 8.61565 13.6882C8.69271 13.5026 8.80565 13.3339 8.948 13.192C9.1 13.042 9.27 12.928 9.452 12.853V7.363C9.26503 7.28645 9.09508 7.1736 8.95198 7.03098C8.80887 6.88836 8.69546 6.71879 8.61828 6.53207C8.5411 6.34536 8.50169 6.1452 8.50233 5.94316C8.50297 5.74113 8.54364 5.54122 8.622 5.355L6.362 3.084L0.375 9.066C-0.125 9.57 -0.125 10.386 0.375 10.89L9.106 19.619C9.22546 19.7388 9.36737 19.8338 9.52361 19.8986C9.67985 19.9634 9.84734 19.9968 10.0165 19.9968C10.1857 19.9968 10.3532 19.9634 10.5094 19.8986C10.6656 19.8338 10.8075 19.7388 10.927 19.619L19.617 10.93C19.7374 10.8109 19.8329 10.6691 19.8983 10.5128C19.9636 10.3566 19.9974 10.189 19.9977 10.0196C19.9979 9.85027 19.9647 9.68254 19.8999 9.52608C19.8351 9.36963 19.74 9.22754 19.62 9.108Z" fill="#5465ff"/>
</svg>
