<svg viewBox="0 0 16 17" xmlns="http://www.w3.org/2000/svg">
<path d="M8.125 4.15442C5.875 4.15442 4.08203 5.98254 4.08203 8.19739C4.08203 10.4474 5.875 12.2404 8.125 12.2404C10.3398 12.2404 12.168 10.4474 12.168 8.19739C12.168 5.98254 10.3398 4.15442 8.125 4.15442ZM8.125 10.8341C6.68359 10.8341 5.48828 9.67395 5.48828 8.19739C5.48828 6.75598 6.64844 5.59583 8.125 5.59583C9.56641 5.59583 10.7266 6.75598 10.7266 8.19739C10.7266 9.67395 9.56641 10.8341 8.125 10.8341ZM13.2578 4.01379C13.2578 3.48645 12.8359 3.06458 12.3086 3.06458C11.7812 3.06458 11.3594 3.48645 11.3594 4.01379C11.3594 4.54114 11.7812 4.96301 12.3086 4.96301C12.8359 4.96301 13.2578 4.54114 13.2578 4.01379ZM15.9297 4.96301C15.8594 3.69739 15.5781 2.57239 14.6641 1.65833C13.75 0.744263 12.625 0.463013 11.3594 0.3927C10.0586 0.322388 6.15625 0.322388 4.85547 0.3927C3.58984 0.463013 2.5 0.744263 1.55078 1.65833C0.636719 2.57239 0.355469 3.69739 0.285156 4.96301C0.214844 6.26379 0.214844 10.1661 0.285156 11.4669C0.355469 12.7325 0.636719 13.8224 1.55078 14.7716C2.5 15.6857 3.58984 15.9669 4.85547 16.0372C6.15625 16.1075 10.0586 16.1075 11.3594 16.0372C12.625 15.9669 13.75 15.6857 14.6641 14.7716C15.5781 13.8224 15.8594 12.7325 15.9297 11.4669C16 10.1661 16 6.26379 15.9297 4.96301ZM14.2422 12.838C13.9961 13.5411 13.4336 14.0685 12.7656 14.3497C11.7109 14.7716 9.25 14.6661 8.125 14.6661C6.96484 14.6661 4.50391 14.7716 3.48438 14.3497C2.78125 14.0685 2.25391 13.5411 1.97266 12.838C1.55078 11.8185 1.65625 9.35754 1.65625 8.19739C1.65625 7.07239 1.55078 4.61145 1.97266 3.55676C2.25391 2.88879 2.78125 2.36145 3.48438 2.0802C4.50391 1.65833 6.96484 1.76379 8.125 1.76379C9.25 1.76379 11.7109 1.65833 12.7656 2.0802C13.4336 2.32629 13.9609 2.88879 14.2422 3.55676C14.6641 4.61145 14.5586 7.07239 14.5586 8.19739C14.5586 9.35754 14.6641 11.8185 14.2422 12.838Z" fill="#3a86ff"/>
</svg>
