<svg width="48" height="48" viewBox="0 0 48 48" fill="none" xmlns="http://www.w3.org/2000/svg">
<path d="M6 6H42V42H6V6ZM39.05 33.414C38.788 31.772 37.718 30.392 34.546 29.104C33.442 28.586 32.216 28.228 31.848 27.396C31.712 26.9 31.692 26.632 31.78 26.338C32.006 25.37 33.154 25.08 34.054 25.348C34.64 25.528 35.18 25.978 35.518 26.7C37.068 25.686 37.068 25.686 38.15 25.012C37.744 24.384 37.542 24.11 37.272 23.84C36.326 22.784 35.066 22.244 33.02 22.29L31.964 22.424C30.95 22.672 29.982 23.214 29.398 23.932C27.688 25.868 28.182 29.242 30.252 30.64C32.298 32.17 35.294 32.506 35.676 33.946C36.036 35.702 34.372 36.264 32.726 36.062C31.512 35.79 30.836 35.184 30.094 34.058L27.35 35.634C27.664 36.352 28.024 36.668 28.564 37.298C31.174 39.93 37.7 39.796 38.87 35.79C38.912 35.656 39.23 34.734 38.982 33.316L39.05 33.414ZM25.576 22.546H22.204C22.204 25.452 22.19 28.342 22.19 31.254C22.19 33.102 22.284 34.798 21.982 35.32C21.488 36.354 20.21 36.222 19.632 36.038C19.038 35.746 18.736 35.34 18.386 34.756C18.292 34.6 18.222 34.464 18.196 34.464L15.46 36.152C15.918 37.098 16.586 37.91 17.448 38.426C18.73 39.192 20.452 39.44 22.256 39.036C23.432 38.696 24.446 37.998 24.972 36.918C25.74 35.524 25.576 33.812 25.57 31.9C25.586 28.818 25.57 25.734 25.57 22.63L25.576 22.546Z" fill="#5465ff"/>
</svg>
