<svg width="16" height="17" viewBox="0 0 16 17" fill="none" xmlns="http://www.w3.org/2000/svg">
<path d="M14.875 0.953979H1.33984C0.742188 0.953979 0.25 1.48132 0.25 2.11414V15.579C0.25 16.2118 0.742188 16.704 1.33984 16.704H14.875C15.4727 16.704 16 16.2118 16 15.579V2.11414C16 1.48132 15.4727 0.953979 14.875 0.953979ZM4.99609 14.454H2.67578V6.9657H4.99609V14.454ZM3.83594 5.91101C3.0625 5.91101 2.46484 5.31335 2.46484 4.57507C2.46484 3.83679 3.0625 3.20398 3.83594 3.20398C4.57422 3.20398 5.17188 3.83679 5.17188 4.57507C5.17188 5.31335 4.57422 5.91101 3.83594 5.91101ZM13.75 14.454H11.3945V10.7977C11.3945 9.95398 11.3945 8.82898 10.1992 8.82898C8.96875 8.82898 8.79297 9.7782 8.79297 10.7626V14.454H6.47266V6.9657H8.6875V7.98523H8.72266C9.03906 7.38757 9.8125 6.75476 10.9375 6.75476C13.293 6.75476 13.75 8.33679 13.75 10.3407V14.454Z" fill="black"/>
</svg>
