<svg width="18" height="20" viewBox="0 0 18 20" fill="none" xmlns="http://www.w3.org/2000/svg">
<path d="M9.00009 19.985C8.72509 19.985 8.46809 19.911 8.22809 19.783L5.78909 18.335C5.42409 18.132 5.60709 18.058 5.71709 18.021C6.21309 17.856 6.30509 17.82 6.81809 17.528C6.87409 17.491 6.94709 17.508 7.00309 17.545L8.87309 18.665C8.94709 18.701 9.03909 18.701 9.09409 18.665L16.4131 14.428C16.4871 14.392 16.5231 14.318 16.5231 14.226V5.76801C16.5231 5.67701 16.4871 5.60301 16.4131 5.56701L9.09409 1.34801C9.02109 1.31101 8.92909 1.31101 8.87309 1.34801L1.55209 5.56601C1.47909 5.60201 1.44209 5.69501 1.44209 5.76701V14.224C1.44209 14.297 1.47909 14.39 1.55209 14.426L3.55209 15.583C4.63409 16.131 5.31409 15.488 5.31409 14.848V6.50201C5.31409 6.39201 5.40509 6.28101 5.53409 6.28101H6.47009C6.57809 6.28101 6.69009 6.37301 6.69009 6.50201V14.849C6.69009 16.298 5.90209 17.143 4.52609 17.143C4.10409 17.143 3.77409 17.143 2.83809 16.683L0.91309 15.584C0.678548 15.4477 0.4839 15.2521 0.348602 15.017C0.213304 14.7818 0.142094 14.5153 0.14209 14.244V5.78601C0.14209 5.23601 0.43509 4.72201 0.91309 4.44701L8.22909 0.210008C8.46659 0.0829937 8.73176 0.0165405 9.00109 0.0165405C9.27042 0.0165405 9.53559 0.0829937 9.77309 0.210008L17.0901 4.44701C17.5691 4.72101 17.8611 5.23601 17.8611 5.78601V14.244C17.8611 14.793 17.5681 15.307 17.0901 15.584L9.77309 19.82C9.53209 19.93 9.25709 19.985 9.00009 19.985ZM11.2561 14.169C8.04609 14.169 7.38609 12.701 7.38609 11.455C7.38609 11.345 7.47809 11.234 7.60609 11.234H8.56009C8.67009 11.234 8.76109 11.307 8.76109 11.418C8.90809 12.389 9.32909 12.867 11.2751 12.867C12.8151 12.867 13.4771 12.517 13.4771 11.692C13.4771 11.215 13.2921 10.867 10.8901 10.629C8.89109 10.429 7.64409 9.98601 7.64409 8.39101C7.64409 6.90601 8.89109 6.02501 10.9831 6.02501C13.3301 6.02501 14.4861 6.83401 14.6321 8.59301C14.6303 8.65237 14.6108 8.70984 14.5761 8.75801C14.5391 8.79401 14.4851 8.83101 14.4301 8.83101H13.4771C13.43 8.83001 13.3846 8.81334 13.348 8.78364C13.3114 8.75394 13.2857 8.7129 13.2751 8.66701C13.0541 7.65501 12.4861 7.32701 10.9831 7.32701C9.29409 7.32701 9.09209 7.91401 9.09209 8.35401C9.09209 8.88501 9.32909 9.05001 11.6061 9.34401C13.8621 9.63701 14.9261 10.059 14.9261 11.638C14.9061 13.253 13.5871 14.169 11.2561 14.169Z" fill="#f25f5c"/>
</svg>
