<svg width="48" height="48" viewBox="0 0 48 48" xmlns="http://www.w3.org/2000/svg">
<path d="M24 26.06C25.9716 26.06 27.57 24.4617 27.57 22.49C27.57 20.5184 25.9716 18.92 24 18.92C22.0283 18.92 20.43 20.5184 20.43 22.49C20.43 24.4617 22.0283 26.06 24 26.06Z" fill="#5465ff"/>
<path d="M14.004 29.588L13.214 29.386C7.34599 27.904 3.98 25.384 3.98 22.482C3.98 19.578 7.34799 17.06 13.214 15.578L14.004 15.378L14.226 16.16C14.8191 18.2074 15.579 20.2027 16.498 22.126L16.668 22.482L16.498 22.838C15.578 24.764 14.816 26.76 14.226 28.808L14.004 29.588ZM12.85 17.398C8.392 18.654 5.654 20.57 5.654 22.482C5.654 24.39 8.39 26.308 12.85 27.562C13.396 25.826 14.056 24.128 14.82 22.482C14.0505 20.8332 13.3923 19.1348 12.85 17.398ZM33.994 29.588L33.774 28.804C33.1793 26.7562 32.4188 24.7602 31.5 22.836L31.33 22.482L31.5 22.124C32.42 20.202 33.178 18.204 33.774 16.156L33.994 15.376L34.784 15.576C40.654 17.058 44.018 19.576 44.018 22.482C44.018 25.386 40.652 27.904 34.784 29.386L33.994 29.588ZM33.174 22.482C33.974 24.214 34.64 25.918 35.148 27.562C39.608 26.308 42.346 24.39 42.346 22.482C42.346 20.57 39.61 18.656 35.148 17.398C34.6025 19.1342 33.9431 20.8326 33.174 22.482Z" fill="#5465ff"/>
<path d="M12.838 17.39L12.618 16.61C10.966 10.794 11.466 6.628 13.992 5.176C16.462 3.746 20.436 5.436 24.598 9.706L25.166 10.29L24.598 10.872C23.1197 12.4094 21.7687 14.0641 20.558 15.82L20.332 16.144L19.94 16.176C17.8112 16.3432 15.6995 16.6837 13.626 17.194L12.838 17.39ZM16.002 6.332C15.554 6.332 15.158 6.43 14.824 6.622C13.168 7.576 12.876 10.898 14.016 15.382C15.798 14.988 17.596 14.706 19.408 14.548C20.457 13.0601 21.6014 11.6418 22.834 10.302C20.228 7.768 17.768 6.332 16.002 6.332ZM31.996 40.3C29.62 40.3 26.568 38.508 23.4 35.256L22.834 34.674L23.4 34.094C24.8785 32.5542 26.2302 30.8974 27.442 29.14L27.666 28.82L28.054 28.782C30.1836 28.6178 32.296 28.2786 34.37 27.768L35.16 27.568L35.382 28.35C37.026 34.162 36.528 38.334 34.006 39.786C33.3937 40.1331 32.6998 40.3105 31.996 40.3ZM25.166 34.66C27.77 37.194 30.232 38.632 31.996 38.632C32.446 38.632 32.842 38.532 33.174 38.342C34.832 37.386 35.126 34.058 33.982 29.574C32.202 29.97 30.402 30.254 28.586 30.412C27.5414 31.9022 26.3989 33.3214 25.166 34.66Z" fill="#5465ff"/>
<path d="M35.16 17.39L34.37 17.192C32.2961 16.6801 30.1837 16.3396 28.054 16.174L27.666 16.14L27.442 15.816C26.2319 14.0592 24.88 12.4043 23.4 10.868L22.834 10.286L23.4 9.70602C27.56 5.43802 31.532 3.74802 34.006 5.17602C36.53 6.63002 37.032 10.796 35.382 16.61L35.16 17.39ZM28.586 14.548C30.494 14.718 32.302 15.004 33.982 15.382C35.124 10.898 34.832 7.57602 33.174 6.62002C31.526 5.66602 28.424 7.12602 25.166 10.302C26.398 11.642 27.542 13.058 28.586 14.548ZM16.002 40.3C15.2983 40.3101 14.6045 40.1327 13.992 39.786C11.466 38.334 10.966 34.164 12.616 28.35L12.832 27.568L13.622 27.768C15.55 28.254 17.674 28.596 19.938 28.782L20.326 28.82L20.552 29.14C21.76 30.896 23.112 32.554 24.592 34.094L25.16 34.674L24.592 35.256C21.426 38.51 18.374 40.3 16.002 40.3ZM14.016 29.576C12.876 34.06 13.168 37.388 14.824 38.344C16.474 39.284 19.566 37.834 22.834 34.66C21.6019 33.3198 20.4575 31.9015 19.408 30.414C17.5942 30.2536 15.7929 29.9737 14.016 29.576Z" fill="#5465ff"/>
<path d="M24 30.626C22.626 30.626 21.216 30.5681 19.8 30.4501L19.408 30.416L19.182 30.092C18.3835 28.9438 17.6322 27.7635 16.93 26.554C16.233 25.3413 15.5851 24.101 14.988 22.836L14.82 22.482L14.988 22.124C15.586 20.86 16.232 19.62 16.93 18.408C17.624 17.216 18.382 16.024 19.182 14.868L19.408 14.548L19.8 14.512C22.5938 14.278 25.4022 14.278 28.196 14.512L28.584 14.55L28.81 14.87C30.4096 17.1676 31.8145 19.5947 33.01 22.126L33.176 22.484L33.01 22.838C31.8178 25.3712 30.4127 27.7985 28.81 30.094L28.584 30.418L28.196 30.452C26.784 30.566 25.372 30.626 24 30.626ZM20.332 28.818C22.802 29.004 25.198 29.004 27.666 28.818C29.0438 26.8005 30.2685 24.6825 31.33 22.482C30.2723 20.2796 29.0474 18.1614 27.666 16.146C25.225 15.958 22.7731 15.958 20.332 16.146C18.9495 18.1606 17.7245 20.2789 16.668 22.482C17.7318 24.6813 18.9564 26.7991 20.332 28.818Z" fill="#5465ff"/>
</svg>
