<svg viewBox="0 0 12 13" xmlns="http://www.w3.org/2000/svg">
<path d="M3.04688 7.85938C2.95312 7.55469 3.21094 7.25 3.53906 7.25H8.53125C8.85938 7.25 9.11719 7.55469 9.02344 7.85938C8.625 9.14844 7.45312 10.0625 6.04688 10.0625C4.64062 10.0625 3.44531 9.14844 3.04688 7.85938ZM4.875 5C4.875 5.42188 4.54688 5.75 4.125 5.75C3.70312 5.75 3.375 5.42188 3.375 5C3.375 4.60156 3.70312 4.25 4.125 4.25C4.54688 4.25 4.875 4.60156 4.875 5ZM6.58594 5.53906C6.39844 5.35156 6.39844 5.07031 6.58594 4.88281C6.91406 4.50781 7.40625 4.34375 7.85156 4.34375C8.29688 4.34375 8.78906 4.50781 9.14062 4.88281C9.30469 5.07031 9.30469 5.35156 9.11719 5.53906C8.92969 5.72656 8.625 5.70312 8.46094 5.51562C8.32031 5.375 8.10938 5.28125 7.85156 5.28125C7.59375 5.28125 7.38281 5.375 7.26562 5.51562C7.07812 5.70312 6.79688 5.72656 6.58594 5.53906ZM12 6.5C12 9.82812 9.30469 12.5 6 12.5C2.67188 12.5 0 9.82812 0 6.5C0 3.19531 2.67188 0.5 6 0.5C9.30469 0.5 12 3.19531 12 6.5ZM6 1.625C3.30469 1.625 1.125 3.82812 1.125 6.5C1.125 9.19531 3.30469 11.375 6 11.375C8.67188 11.375 10.875 9.19531 10.875 6.5C10.875 3.82812 8.67188 1.625 6 1.625Z" fill="white"/>
</svg>
