<svg width="24" height="24" viewBox="0 0 24 24" fill="none" xmlns="http://www.w3.org/2000/svg">
<path d="M10.74 12.89V12.78C10.8 12.63 10.86 12.49 10.93 12.35C11.4834 11.1803 11.5763 9.84505 11.19 8.60999C11.1698 8.43361 11.0955 8.26779 10.9774 8.1353C10.8592 8.0028 10.7029 7.91013 10.53 7.86999C9.78601 7.81821 9.04812 8.03461 8.44997 8.47999V8.65999C8.51566 9.46318 8.49554 10.2711 8.38997 11.07C8.33322 11.4286 8.35962 11.7954 8.46712 12.1422C8.57461 12.4889 8.76034 12.8064 9.00997 13.07C9.19384 13.2656 9.41521 13.4222 9.66089 13.5304C9.90657 13.6387 10.1715 13.6963 10.44 13.7C10.5254 13.4248 10.6255 13.1544 10.74 12.89ZM9.99997 8.57999C9.94378 8.51634 9.91191 8.43487 9.90997 8.34999C9.91604 8.32493 9.92715 8.30137 9.94262 8.28074C9.9581 8.26011 9.97761 8.24284 9.99997 8.22999C10.1476 8.15339 10.3166 8.12873 10.48 8.15999C10.73 8.15999 10.98 8.31999 10.96 8.49999C10.9226 8.59905 10.8554 8.68403 10.7676 8.74317C10.6798 8.8023 10.5758 8.83264 10.47 8.82999H10.41C10.2457 8.80406 10.0983 8.71419 9.99997 8.57999Z" fill="#f25f5c"/>
<path d="M7.8801 11C7.97031 10.2368 7.99039 9.46688 7.9401 8.69999V8.41999C7.90069 6.76916 8.44616 5.15754 9.4801 3.86999C8.4801 3.54999 6.0801 2.86999 4.6101 3.96999C3.7101 4.60999 3.2901 5.80999 3.3801 7.51999C3.57931 9.01395 3.91402 10.4867 4.3801 11.92C5.0601 14.14 5.8301 15.54 6.4901 15.77C6.5901 15.77 6.9001 15.9 7.3501 15.36C7.9901 14.6 8.5801 13.95 8.8501 13.66L8.6601 13.47C8.34689 13.1473 8.11329 12.7561 7.97788 12.3273C7.84247 11.8985 7.80899 11.444 7.8801 11ZM11.3801 14.4C11.2201 14.34 11.1401 14.3 10.9601 14.51C10.8531 14.6177 10.756 14.7348 10.6701 14.86C10.3201 15.29 10.1701 15.44 9.1601 15.65C9.02331 15.6727 8.88926 15.7096 8.7601 15.76C8.87129 15.8379 8.99718 15.8923 9.1301 15.92C9.57759 16.0714 10.0618 16.0753 10.5117 15.9314C10.9617 15.7874 11.3536 15.503 11.6301 15.12C11.6559 15.0653 11.6693 15.0055 11.6693 14.945C11.6693 14.8845 11.6559 14.8247 11.6301 14.77C11.5985 14.6187 11.5087 14.4858 11.3801 14.4ZM17.6701 8.57999C17.7165 8.31904 17.7433 8.05496 17.7501 7.78999C17.0901 7.70999 16.3301 7.71999 16.0301 8.14999C15.4501 8.97999 16.5901 11.03 17.0301 11.9C17.1267 12.0544 17.2136 12.2147 17.2901 12.38C17.33 12.4879 17.3802 12.5917 17.4401 12.69C17.7005 12.0109 17.7561 11.2704 17.6001 10.56C17.5522 10.2121 17.5288 9.8612 17.5301 9.50999C17.5524 9.19681 17.5992 8.88585 17.6701 8.57999ZM17.1101 8.41999C17.0235 8.50829 16.9117 8.56766 16.7901 8.58999H16.7301C16.635 8.59036 16.5421 8.56189 16.4635 8.50832C16.385 8.45476 16.3245 8.37864 16.2901 8.28999C16.2901 8.14999 16.4901 8.04999 16.7301 8.00999C16.9701 7.96999 17.2101 8.00999 17.2301 8.15999C17.2255 8.25899 17.1825 8.35229 17.1101 8.41999Z" fill="#f25f5c"/>
<path d="M16.9998 4.88C17.6586 5.61256 18.1289 6.4947 18.3698 7.45C18.3751 7.49986 18.3751 7.55014 18.3698 7.6C18.3731 7.95537 18.343 8.31027 18.2798 8.66C18.2324 8.94457 18.2023 9.23177 18.1898 9.52C18.1878 9.85462 18.2112 10.1889 18.2598 10.52C18.4618 11.4376 18.3344 12.397 17.8998 13.23L17.9698 13.31C20.1898 9.82 20.9698 5.77 20.2598 4.88C19.805 4.30823 19.225 3.84857 18.5644 3.53648C17.9038 3.22439 17.1803 3.06821 16.4498 3.08C15.9022 3.07236 15.3555 3.12602 14.8198 3.24C15.6598 3.61716 16.4046 4.17752 16.9998 4.88Z" fill="#f25f5c"/>
<path d="M21.65 14C21.58 13.8 21.28 13.15 20.18 13.38C19.8507 13.4501 19.5163 13.4935 19.18 13.51C20.0828 11.9833 20.7757 10.3418 21.24 8.63C21.61 7.18 21.9 5.24 21.13 4.25C20.5645 3.5326 19.8403 2.95606 19.0144 2.56566C18.1885 2.17527 17.2833 1.98165 16.37 2C15.5372 1.99466 14.7082 2.11261 13.91 2.35C13.431 2.26582 12.9462 2.21901 12.46 2.21C11.5992 2.19231 10.7496 2.40646 10 2.83C9.42179 2.63945 8.83014 2.49237 8.23 2.39C7.51695 2.2082 6.77442 2.17295 6.04735 2.2864C5.32028 2.39984 4.62378 2.65962 4 3.05C2.76 3.92 2.19 5.44 2.29 7.57C2.48091 9.15379 2.81562 10.7169 3.29 12.24C3.57215 13.1929 3.94381 14.1171 4.4 15C4.72508 15.8131 5.3522 16.4689 6.15 16.83C6.43915 16.9242 6.74818 16.9395 7.04525 16.8745C7.34231 16.8095 7.61665 16.6664 7.84 16.46C8.10766 16.7512 8.45566 16.9565 8.84 17.05C9.6173 17.2642 10.4436 17.2149 11.19 16.91V17.72C11.1816 18.5173 11.286 19.3119 11.5 20.08C11.5028 20.1233 11.5028 20.1667 11.5 20.21C11.6333 20.6745 11.8769 21.0999 12.21 21.45C12.6128 21.8268 13.1487 22.0283 13.7 22.01C13.9357 22.0109 14.1706 21.9841 14.4 21.93C14.8346 21.8771 15.2542 21.7374 15.6338 21.5192C16.0135 21.301 16.3454 21.0089 16.61 20.66C17.2873 19.4403 17.603 18.0527 17.52 16.66V16.4H17.69C18.5103 16.4568 19.3325 16.3198 20.09 16C20.54 15.77 22 15 21.65 14ZM19.84 15.47C19.2681 15.7003 18.6565 15.8158 18.04 15.81C17.7731 15.8171 17.5067 15.7834 17.25 15.71C17.15 16.65 16.93 18.4 16.8 19.13C16.7616 19.719 16.5136 20.2747 16.1009 20.6966C15.6881 21.1185 15.138 21.3787 14.55 21.43C14.333 21.4759 14.1118 21.4994 13.89 21.5C13.4546 21.4898 13.0344 21.3379 12.6933 21.0671C12.3522 20.7964 12.1088 20.4217 12 20C11.7422 18.6631 11.6482 17.2997 11.72 15.94C11.2332 16.38 10.596 16.6163 9.94 16.6C9.62258 16.5947 9.30695 16.551 9 16.47C8.91 16.47 8.13 16.24 8.14 15.74C8.15 15.24 8.8 15.15 9.04 15.1C9.9 14.92 9.96 14.85 10.23 14.51C10.2889 14.4266 10.3523 14.3465 10.42 14.27C10.032 14.2555 9.65247 14.1529 9.31 13.97C9.08 14.22 8.45 14.9 7.77 15.71C7.64641 15.8938 7.48181 16.0464 7.28919 16.1557C7.09656 16.265 6.88117 16.3281 6.66 16.34C6.54393 16.3567 6.42607 16.3567 6.31 16.34C5.43 16 4.6 14.55 3.84 12C3.36815 10.5239 3.0334 9.00753 2.84 7.47C2.74 5.55 3.24 4.19 4.31 3.47C6.23 2.11 9.31 3.16 10.01 3.41C10.7222 2.93829 11.5668 2.70701 12.42 2.75C12.8924 2.7505 13.3628 2.81098 13.82 2.93C14.6247 2.65615 15.47 2.5209 16.32 2.53C17.1456 2.5073 17.9652 2.67605 18.7147 3.02303C19.4642 3.37002 20.1232 3.88581 20.64 4.53C21.33 5.41 20.87 7.53 20.64 8.42C20.1269 10.3391 19.3135 12.165 18.23 13.83C18.39 13.94 18.88 14.14 20.23 13.83C20.69 13.73 20.96 13.83 21.05 14.08C21.27 14.63 20.35 15.21 19.84 15.45V15.47Z" fill="#f25f5c"/>
<path d="M17.4298 13.59C17.1749 13.2891 16.966 12.9521 16.8098 12.59C16.8098 12.52 16.6898 12.35 16.5798 12.16C15.9998 11.16 14.7898 8.94001 15.5798 7.82001C15.8457 7.53721 16.183 7.33131 16.556 7.22396C16.9291 7.11662 17.3242 7.1118 17.6998 7.21001C17.4427 6.50072 17.0599 5.84355 16.5698 5.27001C16.07 4.65434 15.441 4.15605 14.7273 3.81044C14.0136 3.46482 13.2327 3.28033 12.4398 3.27001C11.9719 3.24052 11.503 3.30987 11.0636 3.47354C10.6243 3.63722 10.2243 3.89156 9.88977 4.22001C9.03834 5.22306 8.55189 6.485 8.50977 7.80001L8.65977 7.72001C9.07553 7.49576 9.53038 7.35319 9.99977 7.30001C10.194 7.25502 10.3954 7.25058 10.5915 7.28695C10.7875 7.32332 10.974 7.39974 11.1391 7.51142C11.3043 7.6231 11.4447 7.76764 11.5515 7.93602C11.6582 8.1044 11.7292 8.29299 11.7598 8.49001C12.1709 9.84245 12.0676 11.2991 11.4698 12.58C11.4047 12.7062 11.348 12.8365 11.2998 12.97V13.08C11.1998 13.35 11.1098 13.6 11.0498 13.81C11.2424 13.7733 11.4417 13.7978 11.6198 13.88C11.7702 13.9516 11.9034 14.0548 12.0104 14.1825C12.1174 14.3101 12.1956 14.4594 12.2398 14.62V14.78C12.2446 14.8098 12.2446 14.8402 12.2398 14.87C12.132 16.5065 12.2058 18.1498 12.4598 19.77C12.5048 19.9817 12.5951 20.181 12.7244 20.3545C12.8538 20.528 13.0191 20.6714 13.2091 20.7749C13.3991 20.8785 13.6092 20.9397 13.8251 20.9544C14.041 20.9691 14.2575 20.9369 14.4598 20.86C14.9359 20.8279 15.3831 20.6196 15.714 20.2757C16.0449 19.9319 16.2359 19.4771 16.2498 19C16.3998 18.12 16.6998 15.65 16.7398 15.12C16.7398 14.06 17.2598 13.85 17.5798 13.76L17.4298 13.59Z" fill="#f25f5c"/>
<path d="M18.0002 14.33L17.9202 14.27H17.8002C17.5402 14.34 17.3002 14.41 17.3302 15.07C17.6253 15.1871 17.945 15.2283 18.2602 15.19C18.733 15.1701 19.1993 15.0721 19.6402 14.9C19.9294 14.7695 20.196 14.594 20.4302 14.38C19.6406 14.6568 18.7777 14.6391 18.0002 14.33Z" fill="#f25f5c"/>
</svg>
