<svg viewBox="0 0 18 16" xmlns="http://www.w3.org/2000/svg" >
<path d="M16.1367 4.38324C16.8398 3.8559 17.4727 3.22308 17.9648 2.4848C17.332 2.76605 16.5938 2.97699 15.8555 3.0473C16.6289 2.59027 17.1914 1.88715 17.4727 1.00824C16.7695 1.43011 15.9609 1.74652 15.1523 1.9223C14.4492 1.18402 13.5 0.762146 12.4453 0.762146C10.4062 0.762146 8.75391 2.41449 8.75391 4.45355C8.75391 4.7348 8.78906 5.01605 8.85938 5.2973C5.80078 5.12152 3.05859 3.64496 1.23047 1.43011C0.914062 1.95746 0.738281 2.59027 0.738281 3.2934C0.738281 4.55902 1.37109 5.68402 2.39062 6.35199C1.79297 6.31683 1.19531 6.17621 0.703125 5.89496V5.93011C0.703125 7.72308 1.96875 9.19965 3.65625 9.55121C3.375 9.62152 3.02344 9.69183 2.70703 9.69183C2.46094 9.69183 2.25 9.65668 2.00391 9.62152C2.46094 11.0981 3.83203 12.1528 5.44922 12.1879C4.18359 13.1723 2.60156 13.77 0.878906 13.77C0.5625 13.77 0.28125 13.7348 0 13.6996C1.61719 14.7543 3.55078 15.352 5.66016 15.352C12.4453 15.352 16.1367 9.76215 16.1367 4.87543C16.1367 4.69965 16.1367 4.55902 16.1367 4.38324Z" fill ="#3a86ff"/>
</svg>
